<?xml version="1.0" encoding="UTF-8"?>
<svg xmlns="http://www.w3.org/2000/svg" version="1.1" width="200" height="200" viewBox="0 0 200 200"><rect x="0" y="0" width="200" height="200" fill="#fefefe"/><g transform="scale(3.509)"><g transform="translate(4,4)"><path fill-rule="evenodd" d="M13 0L13 1L14 1L14 0ZM18 0L18 1L19 1L19 0ZM24 0L24 1L26 1L26 2L21 2L21 5L22 5L22 7L21 7L21 6L20 6L20 4L18 4L18 5L19 5L19 6L18 6L18 8L17 8L17 4L15 4L15 5L14 5L14 7L15 7L15 8L14 8L14 9L13 9L13 11L11 11L11 12L10 12L10 10L8 10L8 8L10 8L10 9L12 9L12 7L13 7L13 6L12 6L12 7L11 7L11 4L12 4L12 5L13 5L13 4L14 4L14 3L17 3L17 1L15 1L15 2L13 2L13 3L10 3L10 1L8 1L8 3L9 3L9 4L8 4L8 8L6 8L6 9L7 9L7 10L5 10L5 9L4 9L4 8L3 8L3 9L2 9L2 8L0 8L0 9L1 9L1 11L0 11L0 15L1 15L1 14L2 14L2 15L3 15L3 18L2 18L2 16L1 16L1 18L2 18L2 19L3 19L3 18L4 18L4 15L5 15L5 14L6 14L6 15L7 15L7 16L5 16L5 17L7 17L7 16L8 16L8 18L5 18L5 20L3 20L3 21L2 21L2 20L0 20L0 23L1 23L1 21L2 21L2 22L3 22L3 21L4 21L4 25L2 25L2 26L1 26L1 27L0 27L0 28L2 28L2 29L3 29L3 28L2 28L2 27L3 27L3 26L4 26L4 27L8 27L8 28L6 28L6 29L5 29L5 30L2 30L2 31L1 31L1 29L0 29L0 31L1 31L1 34L3 34L3 35L2 35L2 36L0 36L0 37L1 37L1 40L0 40L0 41L3 41L3 40L4 40L4 39L2 39L2 36L3 36L3 38L5 38L5 39L7 39L7 38L8 38L8 37L9 37L9 40L8 40L8 43L9 43L9 45L8 45L8 46L9 46L9 47L8 47L8 49L10 49L10 46L11 46L11 47L13 47L13 49L16 49L16 48L15 48L15 46L14 46L14 45L17 45L17 46L16 46L16 47L19 47L19 48L17 48L17 49L19 49L19 48L21 48L21 49L22 49L22 46L21 46L21 47L19 47L19 46L20 46L20 44L19 44L19 43L20 43L20 42L22 42L22 43L21 43L21 44L22 44L22 45L23 45L23 49L26 49L26 48L25 48L25 47L26 47L26 46L24 46L24 45L27 45L27 48L28 48L28 49L30 49L30 48L29 48L29 47L31 47L31 45L30 45L30 44L29 44L29 43L32 43L32 44L33 44L33 43L34 43L34 44L35 44L35 45L36 45L36 46L35 46L35 47L36 47L36 48L34 48L34 49L36 49L36 48L37 48L37 44L38 44L38 45L39 45L39 46L38 46L38 49L42 49L42 48L43 48L43 47L44 47L44 46L45 46L45 44L46 44L46 45L47 45L47 44L48 44L48 45L49 45L49 44L48 44L48 42L49 42L49 41L48 41L48 42L47 42L47 44L46 44L46 43L45 43L45 41L46 41L46 40L41 40L41 39L42 39L42 37L44 37L44 36L45 36L45 35L48 35L48 34L49 34L49 33L48 33L48 32L49 32L49 31L48 31L48 32L47 32L47 31L46 31L46 28L45 28L45 29L44 29L44 27L46 27L46 26L47 26L47 25L48 25L48 27L49 27L49 23L48 23L48 22L49 22L49 14L48 14L48 13L49 13L49 12L46 12L46 11L47 11L47 10L44 10L44 11L43 11L43 9L45 9L45 8L42 8L42 9L41 9L41 6L40 6L40 8L39 8L39 9L38 9L38 12L39 12L39 13L40 13L40 12L39 12L39 11L40 11L40 9L41 9L41 12L42 12L42 11L43 11L43 13L42 13L42 14L43 14L43 15L44 15L44 16L42 16L42 17L41 17L41 16L37 16L37 15L38 15L38 13L37 13L37 12L35 12L35 14L36 14L36 15L35 15L35 16L32 16L32 14L33 14L33 15L34 15L34 14L33 14L33 12L32 12L32 11L37 11L37 9L36 9L36 8L35 8L35 6L36 6L36 7L37 7L37 8L38 8L38 7L39 7L39 5L38 5L38 4L37 4L37 6L36 6L36 5L35 5L35 2L33 2L33 5L32 5L32 4L31 4L31 3L32 3L32 1L33 1L33 0L30 0L30 1L27 1L27 0ZM34 0L34 1L36 1L36 0ZM37 0L37 2L36 2L36 3L37 3L37 2L39 2L39 4L40 4L40 3L41 3L41 0L40 0L40 1L38 1L38 0ZM30 1L30 2L31 2L31 1ZM19 2L19 3L20 3L20 2ZM26 2L26 3L27 3L27 2ZM28 2L28 4L30 4L30 3L29 3L29 2ZM9 4L9 5L10 5L10 4ZM15 5L15 7L16 7L16 5ZM23 5L23 8L26 8L26 5ZM27 5L27 8L28 8L28 9L29 9L29 8L30 8L30 10L31 10L31 11L29 11L29 10L28 10L28 11L27 11L27 12L26 12L26 10L27 10L27 9L25 9L25 12L24 12L24 11L23 11L23 9L21 9L21 7L20 7L20 6L19 6L19 7L20 7L20 8L19 8L19 9L21 9L21 10L22 10L22 11L21 11L21 12L20 12L20 10L19 10L19 12L20 12L20 14L19 14L19 17L17 17L17 16L18 16L18 15L17 15L17 14L18 14L18 12L17 12L17 9L16 9L16 8L15 8L15 9L14 9L14 10L15 10L15 9L16 9L16 11L13 11L13 14L14 14L14 16L13 16L13 15L11 15L11 16L13 16L13 17L15 17L15 19L14 19L14 18L13 18L13 21L12 21L12 20L11 20L11 21L9 21L9 20L10 20L10 19L12 19L12 17L10 17L10 15L9 15L9 18L10 18L10 19L9 19L9 20L7 20L7 19L6 19L6 20L5 20L5 21L6 21L6 22L7 22L7 21L9 21L9 23L10 23L10 25L9 25L9 28L8 28L8 30L10 30L10 31L9 31L9 32L10 32L10 33L6 33L6 32L8 32L8 31L5 31L5 33L4 33L4 34L9 34L9 36L10 36L10 37L11 37L11 38L10 38L10 41L9 41L9 43L11 43L11 45L12 45L12 46L13 46L13 47L14 47L14 46L13 46L13 45L12 45L12 44L14 44L14 43L15 43L15 44L16 44L16 43L15 43L15 41L18 41L18 40L19 40L19 39L20 39L20 40L21 40L21 39L20 39L20 38L21 38L21 36L20 36L20 35L19 35L19 37L20 37L20 38L19 38L19 39L18 39L18 38L16 38L16 39L15 39L15 37L17 37L17 36L18 36L18 34L19 34L19 33L20 33L20 34L21 34L21 35L22 35L22 36L23 36L23 37L22 37L22 40L27 40L27 43L28 43L28 41L30 41L30 42L34 42L34 41L33 41L33 39L34 39L34 40L36 40L36 39L34 39L34 38L32 38L32 34L33 34L33 36L34 36L34 37L35 37L35 35L34 35L34 34L35 34L35 33L36 33L36 34L37 34L37 33L38 33L38 35L36 35L36 36L38 36L38 37L37 37L37 41L36 41L36 42L37 42L37 43L38 43L38 44L39 44L39 45L40 45L40 42L39 42L39 41L38 41L38 40L39 40L39 39L41 39L41 37L40 37L40 38L39 38L39 36L38 36L38 35L40 35L40 36L43 36L43 35L42 35L42 32L40 32L40 33L39 33L39 31L42 31L42 30L43 30L43 29L42 29L42 30L39 30L39 31L38 31L38 32L37 32L37 31L36 31L36 30L34 30L34 28L35 28L35 29L36 29L36 28L35 28L35 27L36 27L36 26L37 26L37 28L38 28L38 29L41 29L41 28L39 28L39 27L40 27L40 26L37 26L37 25L38 25L38 23L36 23L36 21L35 21L35 20L34 20L34 21L35 21L35 23L34 23L34 22L33 22L33 23L32 23L32 22L31 22L31 19L30 19L30 18L35 18L35 19L36 19L36 20L37 20L37 19L38 19L38 22L39 22L39 23L40 23L40 21L41 21L41 22L43 22L43 19L44 19L44 18L45 18L45 19L47 19L47 20L48 20L48 18L47 18L47 17L46 17L46 16L48 16L48 14L46 14L46 16L45 16L45 17L43 17L43 19L41 19L41 17L40 17L40 19L41 19L41 20L39 20L39 19L38 19L38 18L39 18L39 17L37 17L37 19L36 19L36 17L32 17L32 16L31 16L31 15L28 15L28 14L29 14L29 12L30 12L30 14L31 14L31 13L32 13L32 12L31 12L31 11L32 11L32 10L31 10L31 7L32 7L32 9L33 9L33 8L34 8L34 10L35 10L35 8L34 8L34 6L35 6L35 5L33 5L33 7L32 7L32 6L31 6L31 5ZM9 6L9 7L10 7L10 6ZM24 6L24 7L25 7L25 6ZM28 6L28 7L29 7L29 6ZM30 6L30 7L31 7L31 6ZM37 6L37 7L38 7L38 6ZM46 8L46 9L48 9L48 11L49 11L49 9L48 9L48 8ZM2 10L2 11L1 11L1 13L2 13L2 14L3 14L3 15L4 15L4 14L5 14L5 13L6 13L6 14L7 14L7 15L8 15L8 13L9 13L9 14L11 14L11 13L10 13L10 12L9 12L9 11L8 11L8 10L7 10L7 11L5 11L5 10ZM3 11L3 12L2 12L2 13L3 13L3 14L4 14L4 13L5 13L5 11ZM28 11L28 12L27 12L27 13L28 13L28 12L29 12L29 11ZM3 12L3 13L4 13L4 12ZM6 12L6 13L7 13L7 12ZM14 12L14 13L15 13L15 12ZM16 12L16 14L17 14L17 12ZM21 12L21 14L20 14L20 15L22 15L22 16L20 16L20 17L19 17L19 18L18 18L18 20L19 20L19 22L17 22L17 21L16 21L16 20L17 20L17 18L16 18L16 20L15 20L15 21L16 21L16 23L20 23L20 24L19 24L19 25L18 25L18 24L16 24L16 27L18 27L18 28L17 28L17 29L16 29L16 28L15 28L15 22L14 22L14 21L13 21L13 22L14 22L14 23L13 23L13 27L12 27L12 24L11 24L11 25L10 25L10 27L11 27L11 28L9 28L9 29L11 29L11 30L12 30L12 28L15 28L15 29L13 29L13 31L12 31L12 33L13 33L13 34L11 34L11 33L10 33L10 36L12 36L12 38L11 38L11 39L12 39L12 40L11 40L11 41L10 41L10 42L11 42L11 41L12 41L12 43L14 43L14 41L15 41L15 40L14 40L14 41L12 41L12 40L13 40L13 39L14 39L14 37L15 37L15 35L16 35L16 34L15 34L15 33L17 33L17 34L18 34L18 31L19 31L19 32L20 32L20 33L21 33L21 32L23 32L23 29L24 29L24 30L25 30L25 28L26 28L26 29L27 29L27 30L26 30L26 32L24 32L24 34L23 34L23 35L24 35L24 34L26 34L26 35L27 35L27 36L25 36L25 37L26 37L26 38L25 38L25 39L26 39L26 38L28 38L28 39L27 39L27 40L28 40L28 39L29 39L29 40L30 40L30 39L32 39L32 38L30 38L30 37L29 37L29 38L28 38L28 36L30 36L30 35L28 35L28 33L29 33L29 34L30 34L30 33L29 33L29 31L32 31L32 32L31 32L31 34L32 34L32 33L33 33L33 34L34 34L34 32L36 32L36 31L34 31L34 30L31 30L31 29L29 29L29 28L28 28L28 29L27 29L27 28L26 28L26 27L29 27L29 26L28 26L28 25L29 25L29 24L30 24L30 23L31 23L31 22L29 22L29 21L30 21L30 20L29 20L29 17L30 17L30 16L27 16L27 17L26 17L26 16L24 16L24 15L26 15L26 14L24 14L24 13L23 13L23 12ZM45 12L45 13L46 13L46 12ZM36 13L36 14L37 14L37 13ZM22 14L22 15L24 15L24 14ZM44 14L44 15L45 15L45 14ZM15 16L15 17L16 17L16 16ZM22 16L22 17L20 17L20 18L19 18L19 19L20 19L20 21L21 21L21 22L20 22L20 23L21 23L21 24L20 24L20 27L19 27L19 28L21 28L21 30L20 30L20 29L19 29L19 31L20 31L20 32L21 32L21 31L22 31L22 28L21 28L21 25L22 25L22 22L23 22L23 20L24 20L24 22L26 22L26 20L27 20L27 18L26 18L26 20L24 20L24 19L22 19L22 18L23 18L23 16ZM20 18L20 19L21 19L21 21L22 21L22 19L21 19L21 18ZM6 20L6 21L7 21L7 20ZM11 21L11 22L10 22L10 23L12 23L12 21ZM27 21L27 22L28 22L28 23L27 23L27 24L29 24L29 22L28 22L28 21ZM45 21L45 23L47 23L47 24L45 24L45 26L46 26L46 25L47 25L47 24L48 24L48 23L47 23L47 22L48 22L48 21ZM5 23L5 26L8 26L8 23ZM23 23L23 26L26 26L26 23ZM35 23L35 24L36 24L36 23ZM41 23L41 26L44 26L44 23ZM6 24L6 25L7 25L7 24ZM24 24L24 25L25 25L25 24ZM31 24L31 25L32 25L32 26L30 26L30 27L31 27L31 28L32 28L32 29L33 29L33 28L32 28L32 26L33 26L33 27L35 27L35 26L36 26L36 25L34 25L34 26L33 26L33 25L32 25L32 24ZM42 24L42 25L43 25L43 24ZM17 25L17 26L18 26L18 25ZM23 27L23 28L25 28L25 27ZM42 27L42 28L43 28L43 27ZM47 28L47 30L48 30L48 29L49 29L49 28ZM6 29L6 30L7 30L7 29ZM17 29L17 30L15 30L15 31L13 31L13 33L14 33L14 32L16 32L16 31L17 31L17 30L18 30L18 29ZM3 31L3 32L2 32L2 33L3 33L3 32L4 32L4 31ZM33 31L33 32L34 32L34 31ZM44 31L44 32L46 32L46 33L45 33L45 34L44 34L44 33L43 33L43 34L44 34L44 35L45 35L45 34L48 34L48 33L47 33L47 32L46 32L46 31ZM26 32L26 33L27 33L27 32ZM40 33L40 34L41 34L41 33ZM3 35L3 36L5 36L5 38L7 38L7 37L8 37L8 36L7 36L7 35L6 35L6 36L5 36L5 35ZM13 35L13 37L14 37L14 35ZM6 36L6 37L7 37L7 36ZM46 36L46 37L45 37L45 39L46 39L46 38L48 38L48 39L47 39L47 40L49 40L49 38L48 38L48 37L49 37L49 36ZM23 37L23 38L24 38L24 37ZM12 38L12 39L13 39L13 38ZM29 38L29 39L30 39L30 38ZM43 38L43 39L44 39L44 38ZM6 40L6 41L7 41L7 40ZM31 40L31 41L32 41L32 40ZM19 41L19 42L20 42L20 41ZM23 41L23 44L26 44L26 41ZM37 41L37 42L38 42L38 41ZM41 41L41 44L44 44L44 41ZM24 42L24 43L25 43L25 42ZM42 42L42 43L43 43L43 42ZM17 43L17 44L18 44L18 43ZM28 44L28 45L29 45L29 44ZM9 45L9 46L10 46L10 45ZM18 45L18 46L19 46L19 45ZM32 45L32 48L31 48L31 49L32 49L32 48L33 48L33 47L34 47L34 46L33 46L33 45ZM42 45L42 46L40 46L40 47L39 47L39 48L41 48L41 47L43 47L43 45ZM28 46L28 47L29 47L29 46ZM48 46L48 47L47 47L47 48L44 48L44 49L49 49L49 46ZM11 48L11 49L12 49L12 48ZM0 0L0 7L7 7L7 0ZM1 1L1 6L6 6L6 1ZM2 2L2 5L5 5L5 2ZM42 0L42 7L49 7L49 0ZM43 1L43 6L48 6L48 1ZM44 2L44 5L47 5L47 2ZM0 42L0 49L7 49L7 42ZM1 43L1 48L6 48L6 43ZM2 44L2 47L5 47L5 44Z" fill="#000000"/></g></g></svg>
