<?xml version="1.0" encoding="UTF-8"?>
<svg xmlns="http://www.w3.org/2000/svg" version="1.1" width="200" height="200" viewBox="0 0 200 200"><rect x="0" y="0" width="200" height="200" fill="#fefefe"/><g transform="scale(3.279)"><g transform="translate(4,4)"><path fill-rule="evenodd" d="M8 0L8 1L9 1L9 0ZM10 0L10 3L9 3L9 2L8 2L8 5L10 5L10 7L9 7L9 6L8 6L8 7L9 7L9 8L8 8L8 9L7 9L7 8L6 8L6 9L4 9L4 8L0 8L0 11L1 11L1 12L4 12L4 17L3 17L3 18L2 18L2 19L1 19L1 17L2 17L2 16L1 16L1 14L0 14L0 16L1 16L1 17L0 17L0 19L1 19L1 21L0 21L0 22L1 22L1 23L0 23L0 24L1 24L1 25L2 25L2 26L3 26L3 27L4 27L4 29L2 29L2 28L1 28L1 26L0 26L0 31L1 31L1 30L3 30L3 31L2 31L2 32L0 32L0 33L2 33L2 36L3 36L3 35L5 35L5 36L4 36L4 37L1 37L1 36L0 36L0 38L3 38L3 39L4 39L4 37L7 37L7 38L5 38L5 39L7 39L7 38L8 38L8 39L9 39L9 38L10 38L10 39L12 39L12 40L11 40L11 42L14 42L14 43L15 43L15 44L13 44L13 43L12 43L12 44L10 44L10 41L9 41L9 40L4 40L4 42L3 42L3 40L2 40L2 39L1 39L1 40L2 40L2 42L1 42L1 41L0 41L0 43L1 43L1 44L3 44L3 45L4 45L4 44L3 44L3 43L7 43L7 44L6 44L6 45L7 45L7 44L9 44L9 45L8 45L8 46L10 46L10 47L9 47L9 49L8 49L8 53L9 53L9 51L11 51L11 52L10 52L10 53L11 53L11 52L12 52L12 53L13 53L13 52L14 52L14 51L15 51L15 52L16 52L16 53L18 53L18 52L19 52L19 53L20 53L20 52L21 52L21 53L22 53L22 51L23 51L23 52L24 52L24 51L23 51L23 50L20 50L20 49L19 49L19 51L18 51L18 48L19 48L19 46L20 46L20 47L21 47L21 46L22 46L22 45L23 45L23 44L24 44L24 47L22 47L22 48L21 48L21 49L22 49L22 48L24 48L24 50L26 50L26 49L28 49L28 50L27 50L27 51L29 51L29 53L30 53L30 52L31 52L31 53L33 53L33 52L34 52L34 53L35 53L35 52L34 52L34 51L36 51L36 49L37 49L37 48L35 48L35 47L34 47L34 49L35 49L35 50L34 50L34 51L32 51L32 52L31 52L31 50L30 50L30 46L29 46L29 44L28 44L28 43L27 43L27 44L26 44L26 43L25 43L25 41L28 41L28 42L29 42L29 43L30 43L30 42L29 42L29 41L31 41L31 45L32 45L32 46L31 46L31 47L33 47L33 45L32 45L32 44L34 44L34 45L35 45L35 44L34 44L34 42L36 42L36 43L38 43L38 45L39 45L39 46L38 46L38 47L40 47L40 48L39 48L39 49L38 49L38 50L40 50L40 51L41 51L41 52L40 52L40 53L46 53L46 52L47 52L47 53L48 53L48 52L47 52L47 51L49 51L49 53L52 53L52 52L53 52L53 50L52 50L52 49L51 49L51 47L52 47L52 48L53 48L53 47L52 47L52 46L53 46L53 45L52 45L52 46L51 46L51 47L50 47L50 46L49 46L49 45L50 45L50 44L51 44L51 42L50 42L50 41L52 41L52 42L53 42L53 41L52 41L52 40L51 40L51 39L53 39L53 31L51 31L51 30L49 30L49 33L48 33L48 32L47 32L47 31L48 31L48 29L49 29L49 26L51 26L51 29L52 29L52 30L53 30L53 29L52 29L52 28L53 28L53 27L52 27L52 26L53 26L53 25L50 25L50 24L47 24L47 23L48 23L48 20L46 20L46 18L47 18L47 19L50 19L50 20L49 20L49 23L50 23L50 21L52 21L52 22L51 22L51 24L53 24L53 23L52 23L52 22L53 22L53 19L50 19L50 18L49 18L49 17L52 17L52 18L53 18L53 17L52 17L52 16L48 16L48 14L47 14L47 16L44 16L44 15L45 15L45 12L43 12L43 13L44 13L44 15L42 15L42 14L41 14L41 13L42 13L42 11L43 11L43 10L44 10L44 9L46 9L46 8L45 8L45 6L44 6L44 7L43 7L43 3L44 3L44 4L45 4L45 3L44 3L44 1L43 1L43 0L37 0L37 1L39 1L39 3L37 3L37 4L35 4L35 3L36 3L36 2L34 2L34 0L32 0L32 1L31 1L31 2L34 2L34 3L32 3L32 4L33 4L33 6L32 6L32 7L33 7L33 8L32 8L32 11L31 11L31 12L33 12L33 9L34 9L34 7L35 7L35 8L37 8L37 9L38 9L38 10L37 10L37 11L36 11L36 12L35 12L35 11L34 11L34 13L35 13L35 16L34 16L34 17L32 17L32 16L31 16L31 15L30 15L30 17L28 17L28 15L29 15L29 14L32 14L32 13L25 13L25 14L24 14L24 15L23 15L23 14L21 14L21 13L20 13L20 11L21 11L21 12L22 12L22 11L21 11L21 10L19 10L19 9L17 9L17 8L16 8L16 7L17 7L17 5L15 5L15 4L16 4L16 3L18 3L18 4L19 4L19 5L21 5L21 6L20 6L20 7L19 7L19 6L18 6L18 7L19 7L19 8L21 8L21 9L22 9L22 10L23 10L23 11L25 11L25 12L27 12L27 10L26 10L26 9L29 9L29 10L28 10L28 11L29 11L29 12L30 12L30 10L31 10L31 8L29 8L29 4L30 4L30 2L28 2L28 3L29 3L29 4L27 4L27 3L25 3L25 4L24 4L24 2L25 2L25 1L26 1L26 0L25 0L25 1L23 1L23 2L22 2L22 1L21 1L21 0L18 0L18 1L21 1L21 2L20 2L20 4L19 4L19 3L18 3L18 2L16 2L16 0L15 0L15 1L14 1L14 0L13 0L13 1L12 1L12 0ZM27 0L27 1L29 1L29 0ZM40 1L40 3L39 3L39 5L40 5L40 3L41 3L41 5L42 5L42 3L43 3L43 2L42 2L42 1ZM13 2L13 3L14 3L14 4L13 4L13 5L12 5L12 4L11 4L11 3L10 3L10 5L11 5L11 9L9 9L9 10L8 10L8 11L10 11L10 10L11 10L11 13L9 13L9 14L10 14L10 15L8 15L8 12L7 12L7 11L6 11L6 12L5 12L5 11L4 11L4 10L3 10L3 9L1 9L1 11L4 11L4 12L5 12L5 14L7 14L7 15L5 15L5 16L7 16L7 17L4 17L4 18L3 18L3 19L2 19L2 21L1 21L1 22L2 22L2 23L1 23L1 24L2 24L2 25L3 25L3 26L4 26L4 24L2 24L2 23L4 23L4 22L5 22L5 24L7 24L7 23L6 23L6 22L7 22L7 21L6 21L6 20L8 20L8 21L9 21L9 22L10 22L10 23L9 23L9 24L10 24L10 26L9 26L9 27L10 27L10 26L11 26L11 28L10 28L10 30L9 30L9 32L8 32L8 29L5 29L5 30L4 30L4 31L3 31L3 32L2 32L2 33L3 33L3 34L4 34L4 31L5 31L5 32L8 32L8 33L6 33L6 34L5 34L5 35L6 35L6 36L7 36L7 35L8 35L8 36L9 36L9 34L8 34L8 33L11 33L11 32L12 32L12 37L14 37L14 36L16 36L16 35L18 35L18 36L17 36L17 37L16 37L16 40L14 40L14 38L13 38L13 40L14 40L14 42L15 42L15 41L16 41L16 42L17 42L17 39L20 39L20 40L21 40L21 41L20 41L20 43L17 43L17 44L15 44L15 45L14 45L14 46L13 46L13 47L12 47L12 48L11 48L11 47L10 47L10 48L11 48L11 50L12 50L12 49L13 49L13 51L12 51L12 52L13 52L13 51L14 51L14 49L15 49L15 50L17 50L17 48L18 48L18 46L19 46L19 45L20 45L20 46L21 46L21 44L20 44L20 43L22 43L22 44L23 44L23 43L24 43L24 42L22 42L22 41L23 41L23 40L22 40L22 37L23 37L23 39L25 39L25 38L24 38L24 35L25 35L25 37L26 37L26 39L27 39L27 37L28 37L28 38L29 38L29 37L28 37L28 36L26 36L26 35L25 35L25 33L26 33L26 34L27 34L27 35L30 35L30 36L31 36L31 34L32 34L32 33L33 33L33 34L34 34L34 35L38 35L38 36L39 36L39 37L41 37L41 38L42 38L42 39L41 39L41 40L40 40L40 41L41 41L41 40L42 40L42 39L43 39L43 41L42 41L42 42L43 42L43 43L41 43L41 42L39 42L39 41L38 41L38 42L39 42L39 43L40 43L40 44L39 44L39 45L40 45L40 44L42 44L42 45L41 45L41 46L40 46L40 47L41 47L41 48L40 48L40 49L41 49L41 48L42 48L42 50L41 50L41 51L42 51L42 50L44 50L44 51L43 51L43 52L45 52L45 51L47 51L47 50L48 50L48 49L46 49L46 50L45 50L45 49L44 49L44 47L43 47L43 46L44 46L44 45L43 45L43 44L44 44L44 42L43 42L43 41L44 41L44 39L43 39L43 38L42 38L42 37L44 37L44 38L45 38L45 39L46 39L46 41L48 41L48 42L45 42L45 43L46 43L46 44L49 44L49 43L48 43L48 42L49 42L49 41L50 41L50 39L49 39L49 40L48 40L48 37L50 37L50 36L49 36L49 34L48 34L48 37L47 37L47 36L45 36L45 37L44 37L44 36L43 36L43 35L44 35L44 34L46 34L46 35L47 35L47 33L45 33L45 31L46 31L46 30L47 30L47 29L45 29L45 30L44 30L44 29L42 29L42 28L41 28L41 27L40 27L40 30L39 30L39 27L37 27L37 26L38 26L38 25L37 25L37 26L36 26L36 24L37 24L37 22L39 22L39 21L40 21L40 20L41 20L41 21L42 21L42 20L43 20L43 22L40 22L40 25L39 25L39 26L40 26L40 25L41 25L41 26L42 26L42 27L43 27L43 28L44 28L44 24L46 24L46 23L47 23L47 22L46 22L46 23L45 23L45 22L44 22L44 21L46 21L46 20L43 20L43 19L44 19L44 18L46 18L46 17L44 17L44 18L43 18L43 17L42 17L42 16L40 16L40 15L39 15L39 14L40 14L40 13L41 13L41 11L42 11L42 10L43 10L43 9L42 9L42 8L43 8L43 7L42 7L42 6L41 6L41 7L40 7L40 6L39 6L39 7L40 7L40 8L39 8L39 9L42 9L42 10L40 10L40 11L37 11L37 12L36 12L36 13L38 13L38 14L36 14L36 15L37 15L37 16L35 16L35 17L34 17L34 18L32 18L32 20L31 20L31 18L30 18L30 19L29 19L29 18L28 18L28 17L25 17L25 16L26 16L26 15L25 15L25 16L22 16L22 17L21 17L21 19L20 19L20 16L21 16L21 14L20 14L20 13L19 13L19 10L17 10L17 11L16 11L16 8L15 8L15 7L16 7L16 6L15 6L15 7L14 7L14 4L15 4L15 3L16 3L16 2ZM21 3L21 4L22 4L22 5L23 5L23 7L24 7L24 5L23 5L23 3ZM34 4L34 5L35 5L35 4ZM37 4L37 5L36 5L36 6L35 6L35 7L36 7L36 6L37 6L37 7L38 7L38 6L37 6L37 5L38 5L38 4ZM25 5L25 8L28 8L28 5ZM12 6L12 8L13 8L13 6ZM21 6L21 8L22 8L22 9L24 9L24 8L22 8L22 6ZM26 6L26 7L27 7L27 6ZM30 6L30 7L31 7L31 6ZM33 6L33 7L34 7L34 6ZM14 8L14 9L15 9L15 8ZM48 8L48 9L47 9L47 10L48 10L48 9L49 9L49 10L50 10L50 11L49 11L49 15L53 15L53 13L50 13L50 11L51 11L51 12L52 12L52 11L51 11L51 10L52 10L52 9L53 9L53 8L52 8L52 9L51 9L51 8ZM6 9L6 10L7 10L7 9ZM12 9L12 10L13 10L13 12L14 12L14 11L15 11L15 12L16 12L16 13L17 13L17 14L15 14L15 15L19 15L19 16L18 16L18 17L19 17L19 16L20 16L20 14L18 14L18 13L17 13L17 12L16 12L16 11L15 11L15 10L13 10L13 9ZM35 9L35 10L36 10L36 9ZM50 9L50 10L51 10L51 9ZM25 10L25 11L26 11L26 10ZM46 11L46 13L47 13L47 11ZM6 12L6 13L7 13L7 12ZM23 12L23 13L24 13L24 12ZM38 12L38 13L39 13L39 12ZM11 13L11 14L12 14L12 13ZM13 13L13 16L14 16L14 17L16 17L16 18L17 18L17 17L16 17L16 16L14 16L14 13ZM2 14L2 15L3 15L3 14ZM27 14L27 15L28 15L28 14ZM7 15L7 16L8 16L8 17L7 17L7 18L6 18L6 19L4 19L4 20L6 20L6 19L8 19L8 20L11 20L11 21L10 21L10 22L11 22L11 23L10 23L10 24L11 24L11 25L12 25L12 24L13 24L13 25L14 25L14 26L17 26L17 27L16 27L16 28L14 28L14 27L13 27L13 26L12 26L12 28L11 28L11 30L12 30L12 32L13 32L13 35L16 35L16 33L18 33L18 34L21 34L21 33L20 33L20 32L22 32L22 34L23 34L23 35L24 35L24 33L23 33L23 31L22 31L22 29L21 29L21 28L19 28L19 27L18 27L18 26L17 26L17 25L16 25L16 24L18 24L18 25L20 25L20 26L22 26L22 28L23 28L23 29L25 29L25 30L26 30L26 29L28 29L28 30L27 30L27 32L28 32L28 31L31 31L31 32L30 32L30 33L29 33L29 34L31 34L31 33L32 33L32 32L33 32L33 31L32 31L32 30L33 30L33 29L34 29L34 31L36 31L36 32L35 32L35 33L37 33L37 31L38 31L38 33L39 33L39 34L38 34L38 35L40 35L40 36L41 36L41 37L42 37L42 36L41 36L41 35L40 35L40 34L41 34L41 32L40 32L40 31L38 31L38 30L37 30L37 29L36 29L36 26L35 26L35 29L34 29L34 28L33 28L33 27L31 27L31 26L30 26L30 23L29 23L29 22L30 22L30 21L31 21L31 20L30 20L30 21L29 21L29 19L28 19L28 20L27 20L27 21L29 21L29 22L27 22L27 24L24 24L24 25L23 25L23 24L22 24L22 23L21 23L21 21L22 21L22 22L23 22L23 23L26 23L26 20L24 20L24 21L23 21L23 20L22 20L22 19L21 19L21 20L20 20L20 19L19 19L19 18L18 18L18 20L19 20L19 21L20 21L20 23L21 23L21 24L22 24L22 25L20 25L20 24L18 24L18 21L17 21L17 20L16 20L16 21L17 21L17 23L14 23L14 22L15 22L15 21L14 21L14 20L15 20L15 19L14 19L14 18L13 18L13 19L12 19L12 18L11 18L11 16L8 16L8 15ZM47 16L47 18L48 18L48 16ZM22 17L22 18L23 18L23 19L25 19L25 18L24 18L24 17ZM36 17L36 18L34 18L34 19L37 19L37 20L36 20L36 21L39 21L39 20L40 20L40 19L38 19L38 18L37 18L37 17ZM8 18L8 19L11 19L11 20L12 20L12 21L11 21L11 22L12 22L12 21L13 21L13 22L14 22L14 21L13 21L13 20L14 20L14 19L13 19L13 20L12 20L12 19L11 19L11 18ZM32 20L32 22L31 22L31 23L33 23L33 24L32 24L32 25L33 25L33 24L34 24L34 25L35 25L35 23L33 23L33 22L34 22L34 20ZM5 21L5 22L6 22L6 21ZM11 23L11 24L12 24L12 23ZM28 23L28 24L29 24L29 23ZM38 23L38 24L39 24L39 23ZM41 23L41 24L42 24L42 23ZM5 25L5 28L8 28L8 25ZM22 25L22 26L23 26L23 25ZM25 25L25 28L28 28L28 25ZM42 25L42 26L43 26L43 25ZM45 25L45 28L48 28L48 25ZM6 26L6 27L7 27L7 26ZM26 26L26 27L27 27L27 26ZM46 26L46 27L47 27L47 26ZM23 27L23 28L24 28L24 27ZM29 27L29 29L30 29L30 27ZM12 28L12 30L13 30L13 31L15 31L15 30L14 30L14 29L13 29L13 28ZM17 28L17 29L16 29L16 32L17 32L17 30L18 30L18 31L19 31L19 32L20 32L20 31L19 31L19 30L21 30L21 29L19 29L19 28ZM18 29L18 30L19 30L19 29ZM35 29L35 30L36 30L36 29ZM6 30L6 31L7 31L7 30ZM10 31L10 32L11 32L11 31ZM24 31L24 32L26 32L26 31ZM43 31L43 32L42 32L42 34L44 34L44 31ZM14 32L14 34L15 34L15 32ZM39 32L39 33L40 33L40 32ZM50 32L50 34L51 34L51 37L52 37L52 32ZM27 33L27 34L28 34L28 33ZM6 34L6 35L7 35L7 34ZM10 34L10 36L11 36L11 34ZM20 35L20 36L21 36L21 37L20 37L20 38L21 38L21 37L22 37L22 35ZM32 35L32 36L33 36L33 35ZM18 36L18 37L17 37L17 38L19 38L19 36ZM34 36L34 37L30 37L30 38L31 38L31 39L32 39L32 41L33 41L33 38L35 38L35 37L36 37L36 36ZM37 37L37 38L36 38L36 39L34 39L34 40L37 40L37 38L38 38L38 37ZM45 37L45 38L46 38L46 39L47 39L47 38L46 38L46 37ZM28 39L28 40L29 40L29 39ZM38 39L38 40L39 40L39 39ZM18 40L18 42L19 42L19 40ZM24 40L24 41L25 41L25 40ZM5 41L5 42L7 42L7 43L8 43L8 42L7 42L7 41ZM2 42L2 43L3 43L3 42ZM32 42L32 43L33 43L33 42ZM52 43L52 44L53 44L53 43ZM12 44L12 45L11 45L11 46L12 46L12 45L13 45L13 44ZM15 45L15 48L17 48L17 47L16 47L16 46L18 46L18 45ZM25 45L25 48L28 48L28 45ZM42 45L42 46L41 46L41 47L42 47L42 46L43 46L43 45ZM45 45L45 48L48 48L48 45ZM26 46L26 47L27 47L27 46ZM46 46L46 47L47 47L47 46ZM13 47L13 49L14 49L14 47ZM31 48L31 49L32 49L32 48ZM49 48L49 51L50 51L50 52L52 52L52 50L51 50L51 51L50 51L50 48ZM9 49L9 50L10 50L10 49ZM29 50L29 51L30 51L30 50ZM16 51L16 52L18 52L18 51ZM25 51L25 52L26 52L26 53L27 53L27 52L26 52L26 51ZM37 51L37 53L39 53L39 52L38 52L38 51ZM0 0L0 7L7 7L7 0ZM1 1L1 6L6 6L6 1ZM2 2L2 5L5 5L5 2ZM46 0L46 7L53 7L53 0ZM47 1L47 6L52 6L52 1ZM48 2L48 5L51 5L51 2ZM0 46L0 53L7 53L7 46ZM1 47L1 52L6 52L6 47ZM2 48L2 51L5 51L5 48Z" fill="#000000"/></g></g></svg>
