<?xml version="1.0" encoding="UTF-8"?>
<svg xmlns="http://www.w3.org/2000/svg" version="1.1" width="200" height="200" viewBox="0 0 200 200"><rect x="0" y="0" width="200" height="200" fill="#fefefe"/><g transform="scale(3.279)"><g transform="translate(4,4)"><path fill-rule="evenodd" d="M8 0L8 1L9 1L9 0ZM10 0L10 2L8 2L8 5L10 5L10 4L11 4L11 5L12 5L12 7L11 7L11 6L10 6L10 7L9 7L9 6L8 6L8 7L9 7L9 8L8 8L8 9L7 9L7 8L6 8L6 9L7 9L7 10L6 10L6 11L4 11L4 10L5 10L5 9L4 9L4 8L0 8L0 13L2 13L2 12L3 12L3 14L4 14L4 16L3 16L3 15L2 15L2 17L1 17L1 15L0 15L0 17L1 17L1 18L2 18L2 17L3 17L3 18L4 18L4 17L5 17L5 19L7 19L7 18L9 18L9 19L8 19L8 20L6 20L6 21L8 21L8 20L9 20L9 21L10 21L10 20L11 20L11 19L12 19L12 17L13 17L13 16L14 16L14 17L16 17L16 18L17 18L17 23L16 23L16 22L15 22L15 23L14 23L14 21L13 21L13 20L15 20L15 21L16 21L16 20L15 20L15 19L14 19L14 18L13 18L13 20L12 20L12 22L10 22L10 23L11 23L11 24L8 24L8 23L9 23L9 22L5 22L5 24L2 24L2 23L3 23L3 22L4 22L4 21L5 21L5 20L4 20L4 19L0 19L0 20L4 20L4 21L2 21L2 23L1 23L1 21L0 21L0 23L1 23L1 24L0 24L0 26L1 26L1 24L2 24L2 25L3 25L3 28L4 28L4 29L3 29L3 32L1 32L1 30L2 30L2 29L1 29L1 28L0 28L0 29L1 29L1 30L0 30L0 37L1 37L1 36L3 36L3 37L2 37L2 38L1 38L1 39L0 39L0 43L1 43L1 44L3 44L3 45L4 45L4 44L3 44L3 43L7 43L7 42L9 42L9 43L8 43L8 44L10 44L10 41L11 41L11 40L13 40L13 42L14 42L14 43L12 43L12 42L11 42L11 46L10 46L10 45L8 45L8 46L9 46L9 49L8 49L8 53L10 53L10 52L11 52L11 53L14 53L14 49L15 49L15 48L14 48L14 46L13 46L13 48L14 48L14 49L13 49L13 52L11 52L11 50L12 50L12 45L17 45L17 46L15 46L15 47L16 47L16 48L17 48L17 50L15 50L15 52L16 52L16 53L17 53L17 52L16 52L16 51L18 51L18 52L21 52L21 53L22 53L22 52L23 52L23 50L22 50L22 52L21 52L21 50L20 50L20 49L19 49L19 51L18 51L18 48L19 48L19 47L21 47L21 46L20 46L20 45L19 45L19 44L18 44L18 43L20 43L20 44L22 44L22 46L23 46L23 44L24 44L24 47L22 47L22 48L21 48L21 49L22 49L22 48L24 48L24 50L26 50L26 49L28 49L28 50L27 50L27 51L29 51L29 53L30 53L30 52L31 52L31 53L33 53L33 52L34 52L34 53L35 53L35 52L34 52L34 51L36 51L36 49L37 49L37 48L35 48L35 47L34 47L34 49L35 49L35 50L34 50L34 51L32 51L32 52L31 52L31 50L30 50L30 46L29 46L29 44L28 44L28 43L27 43L27 44L26 44L26 43L25 43L25 42L26 42L26 41L25 41L25 40L26 40L26 39L23 39L23 35L24 35L24 38L26 38L26 37L25 37L25 35L26 35L26 36L28 36L28 37L27 37L27 41L28 41L28 42L29 42L29 43L30 43L30 42L29 42L29 41L31 41L31 45L32 45L32 46L31 46L31 47L33 47L33 45L32 45L32 44L34 44L34 45L35 45L35 44L34 44L34 42L36 42L36 43L38 43L38 45L39 45L39 46L38 46L38 47L40 47L40 48L39 48L39 49L38 49L38 50L40 50L40 51L41 51L41 52L40 52L40 53L46 53L46 52L47 52L47 53L48 53L48 52L47 52L47 51L49 51L49 50L52 50L52 52L49 52L49 53L52 53L52 52L53 52L53 50L52 50L52 49L51 49L51 48L53 48L53 47L52 47L52 46L51 46L51 47L50 47L50 46L49 46L49 45L51 45L51 44L47 44L47 41L49 41L49 39L50 39L50 41L52 41L52 42L53 42L53 41L52 41L52 40L51 40L51 38L52 38L52 39L53 39L53 32L52 32L52 30L53 30L53 29L52 29L52 28L53 28L53 27L52 27L52 26L53 26L53 25L52 25L52 23L51 23L51 25L50 25L50 24L47 24L47 23L46 23L46 24L44 24L44 28L43 28L43 27L42 27L42 26L43 26L43 25L42 25L42 26L41 26L41 25L40 25L40 22L43 22L43 20L45 20L45 21L44 21L44 22L47 22L47 20L46 20L46 18L47 18L47 19L48 19L48 22L49 22L49 23L50 23L50 21L49 21L49 19L50 19L50 20L51 20L51 21L52 21L52 22L53 22L53 19L50 19L50 18L49 18L49 17L52 17L52 18L53 18L53 17L52 17L52 16L48 16L48 14L47 14L47 16L44 16L44 15L46 15L46 13L45 13L45 12L47 12L47 13L49 13L49 15L51 15L51 14L52 14L52 15L53 15L53 13L51 13L51 12L52 12L52 11L51 11L51 10L52 10L52 9L53 9L53 8L52 8L52 9L51 9L51 8L48 8L48 9L47 9L47 10L48 10L48 9L49 9L49 10L50 10L50 13L49 13L49 11L45 11L45 12L43 12L43 13L44 13L44 15L42 15L42 14L41 14L41 13L42 13L42 11L43 11L43 10L44 10L44 9L46 9L46 8L45 8L45 6L44 6L44 7L43 7L43 3L44 3L44 4L45 4L45 3L44 3L44 1L43 1L43 0L37 0L37 1L39 1L39 3L37 3L37 4L35 4L35 3L36 3L36 2L34 2L34 0L32 0L32 1L31 1L31 2L34 2L34 3L32 3L32 4L33 4L33 6L32 6L32 7L33 7L33 8L32 8L32 11L31 11L31 12L33 12L33 9L34 9L34 7L35 7L35 8L37 8L37 9L38 9L38 10L37 10L37 11L36 11L36 12L35 12L35 11L34 11L34 13L35 13L35 16L34 16L34 17L32 17L32 16L31 16L31 15L30 15L30 17L28 17L28 16L27 16L27 14L28 14L28 15L29 15L29 14L32 14L32 13L27 13L27 10L26 10L26 9L29 9L29 10L28 10L28 11L29 11L29 12L30 12L30 10L31 10L31 8L29 8L29 4L30 4L30 2L27 2L27 3L24 3L24 2L25 2L25 1L26 1L26 0L25 0L25 1L23 1L23 2L22 2L22 1L21 1L21 0L18 0L18 1L21 1L21 2L20 2L20 4L21 4L21 6L20 6L20 7L19 7L19 6L18 6L18 7L19 7L19 8L21 8L21 9L22 9L22 10L19 10L19 9L17 9L17 8L16 8L16 7L17 7L17 5L19 5L19 3L18 3L18 4L17 4L17 2L16 2L16 0L15 0L15 1L14 1L14 0L13 0L13 3L12 3L12 1L11 1L11 0ZM28 0L28 1L29 1L29 0ZM40 1L40 3L39 3L39 5L40 5L40 3L41 3L41 5L42 5L42 3L43 3L43 2L42 2L42 1ZM14 2L14 3L13 3L13 4L12 4L12 5L13 5L13 7L12 7L12 8L13 8L13 10L15 10L15 11L14 11L14 13L13 13L13 14L14 14L14 16L16 16L16 17L17 17L17 18L19 18L19 19L18 19L18 21L19 21L19 22L18 22L18 24L16 24L16 25L17 25L17 26L14 26L14 25L13 25L13 24L11 24L11 25L13 25L13 26L12 26L12 27L13 27L13 26L14 26L14 27L15 27L15 29L16 29L16 32L17 32L17 29L18 29L18 31L21 31L21 29L22 29L22 31L23 31L23 34L22 34L22 32L20 32L20 33L21 33L21 34L18 34L18 33L16 33L16 35L15 35L15 36L14 36L14 34L15 34L15 32L14 32L14 34L13 34L13 31L15 31L15 30L14 30L14 28L13 28L13 29L12 29L12 30L13 30L13 31L11 31L11 30L10 30L10 31L11 31L11 32L10 32L10 33L9 33L9 32L8 32L8 31L9 31L9 30L8 30L8 31L6 31L6 32L8 32L8 33L6 33L6 34L5 34L5 33L4 33L4 32L3 32L3 33L4 33L4 34L2 34L2 33L1 33L1 35L4 35L4 34L5 34L5 35L6 35L6 36L7 36L7 37L6 37L6 38L5 38L5 39L6 39L6 40L4 40L4 39L3 39L3 41L2 41L2 43L3 43L3 41L6 41L6 42L7 42L7 41L8 41L8 40L9 40L9 41L10 41L10 40L9 40L9 39L10 39L10 38L11 38L11 39L13 39L13 40L14 40L14 42L15 42L15 41L16 41L16 42L17 42L17 39L20 39L20 40L21 40L21 41L20 41L20 43L22 43L22 44L23 44L23 43L24 43L24 42L25 42L25 41L24 41L24 42L22 42L22 41L23 41L23 40L22 40L22 38L20 38L20 35L21 35L21 37L22 37L22 35L23 35L23 34L24 34L24 33L25 33L25 32L24 32L24 31L26 31L26 33L28 33L28 34L27 34L27 35L30 35L30 36L31 36L31 34L32 34L32 33L33 33L33 34L34 34L34 35L38 35L38 36L39 36L39 37L41 37L41 38L42 38L42 39L41 39L41 40L40 40L40 41L41 41L41 40L42 40L42 39L43 39L43 41L42 41L42 42L43 42L43 43L41 43L41 42L39 42L39 41L38 41L38 42L39 42L39 43L40 43L40 44L39 44L39 45L40 45L40 44L42 44L42 45L41 45L41 46L40 46L40 47L41 47L41 48L40 48L40 49L41 49L41 48L42 48L42 50L41 50L41 51L42 51L42 50L43 50L43 51L44 51L44 52L45 52L45 51L47 51L47 50L48 50L48 49L46 49L46 50L44 50L44 47L43 47L43 46L44 46L44 45L43 45L43 44L44 44L44 42L43 42L43 41L44 41L44 40L45 40L45 39L46 39L46 41L45 41L45 44L46 44L46 41L47 41L47 40L48 40L48 37L49 37L49 36L50 36L50 37L52 37L52 33L51 33L51 32L50 32L50 34L51 34L51 35L48 35L48 34L47 34L47 33L46 33L46 34L45 34L45 31L46 31L46 30L47 30L47 29L45 29L45 30L44 30L44 29L42 29L42 28L41 28L41 27L40 27L40 30L39 30L39 27L37 27L37 26L38 26L38 25L37 25L37 26L36 26L36 24L37 24L37 22L39 22L39 21L40 21L40 20L41 20L41 21L42 21L42 20L43 20L43 19L44 19L44 18L46 18L46 17L44 17L44 18L43 18L43 17L42 17L42 16L40 16L40 15L39 15L39 14L40 14L40 13L41 13L41 11L42 11L42 10L43 10L43 9L42 9L42 8L43 8L43 7L42 7L42 6L41 6L41 7L40 7L40 6L39 6L39 7L40 7L40 8L39 8L39 9L42 9L42 10L40 10L40 11L37 11L37 12L36 12L36 13L38 13L38 14L36 14L36 15L37 15L37 16L35 16L35 17L34 17L34 18L32 18L32 20L31 20L31 18L30 18L30 19L29 19L29 18L28 18L28 17L25 17L25 16L26 16L26 15L25 15L25 13L26 13L26 12L25 12L25 11L23 11L23 10L22 10L22 11L23 11L23 12L21 12L21 11L20 11L20 12L19 12L19 10L17 10L17 11L16 11L16 8L15 8L15 7L16 7L16 6L15 6L15 7L14 7L14 5L13 5L13 4L14 4L14 3L16 3L16 2ZM21 2L21 4L24 4L24 3L22 3L22 2ZM9 3L9 4L10 4L10 3ZM27 3L27 4L29 4L29 3ZM16 4L16 5L17 5L17 4ZM34 4L34 5L35 5L35 4ZM37 4L37 5L36 5L36 6L35 6L35 7L36 7L36 6L37 6L37 7L38 7L38 6L37 6L37 5L38 5L38 4ZM23 5L23 8L22 8L22 6L21 6L21 8L22 8L22 9L24 9L24 5ZM25 5L25 8L28 8L28 5ZM26 6L26 7L27 7L27 6ZM30 6L30 7L31 7L31 6ZM33 6L33 7L34 7L34 6ZM10 7L10 8L9 8L9 12L8 12L8 11L6 11L6 12L5 12L5 13L6 13L6 14L5 14L5 17L6 17L6 18L7 18L7 17L6 17L6 16L8 16L8 17L9 17L9 18L10 18L10 15L11 15L11 16L13 16L13 15L12 15L12 14L10 14L10 12L11 12L11 13L12 13L12 11L11 11L11 9L10 9L10 8L11 8L11 7ZM14 8L14 9L15 9L15 8ZM1 9L1 11L2 11L2 9ZM3 9L3 10L4 10L4 9ZM35 9L35 10L36 10L36 9ZM50 9L50 10L51 10L51 9ZM15 11L15 12L16 12L16 11ZM6 12L6 13L8 13L8 12ZM18 12L18 14L16 14L16 15L19 15L19 16L18 16L18 17L19 17L19 16L20 16L20 19L19 19L19 21L21 21L21 22L22 22L22 21L21 21L21 20L20 20L20 19L21 19L21 17L22 17L22 18L23 18L23 19L25 19L25 18L24 18L24 16L25 16L25 15L23 15L23 14L21 14L21 12L20 12L20 13L19 13L19 12ZM23 12L23 13L24 13L24 12ZM38 12L38 13L39 13L39 12ZM14 13L14 14L15 14L15 13ZM6 14L6 15L7 15L7 14ZM9 14L9 15L8 15L8 16L9 16L9 15L10 15L10 14ZM19 14L19 15L20 15L20 16L21 16L21 14ZM22 16L22 17L23 17L23 16ZM47 16L47 18L48 18L48 16ZM36 17L36 18L34 18L34 19L37 19L37 20L36 20L36 21L39 21L39 20L40 20L40 19L38 19L38 18L37 18L37 17ZM26 19L26 20L24 20L24 21L23 21L23 22L24 22L24 23L23 23L23 24L22 24L22 23L21 23L21 24L22 24L22 25L20 25L20 22L19 22L19 24L18 24L18 25L20 25L20 26L21 26L21 28L22 28L22 29L25 29L25 30L26 30L26 29L28 29L28 30L27 30L27 32L28 32L28 31L31 31L31 32L30 32L30 33L29 33L29 34L31 34L31 33L32 33L32 32L33 32L33 31L32 31L32 30L33 30L33 29L34 29L34 31L36 31L36 32L35 32L35 33L37 33L37 31L38 31L38 33L39 33L39 34L38 34L38 35L40 35L40 36L41 36L41 37L42 37L42 38L43 38L43 39L45 39L45 38L46 38L46 39L47 39L47 38L46 38L46 37L45 37L45 36L47 36L47 37L48 37L48 36L47 36L47 34L46 34L46 35L45 35L45 34L44 34L44 31L43 31L43 32L42 32L42 34L44 34L44 35L43 35L43 36L44 36L44 37L42 37L42 36L41 36L41 35L40 35L40 34L41 34L41 32L40 32L40 31L38 31L38 30L37 30L37 29L36 29L36 26L35 26L35 29L34 29L34 28L33 28L33 27L31 27L31 26L30 26L30 23L29 23L29 22L30 22L30 21L31 21L31 20L30 20L30 21L29 21L29 19L28 19L28 20L27 20L27 19ZM32 20L32 22L31 22L31 23L33 23L33 24L32 24L32 25L33 25L33 24L34 24L34 25L35 25L35 23L33 23L33 22L34 22L34 20ZM26 21L26 23L25 23L25 24L27 24L27 22L29 22L29 21ZM6 23L6 24L7 24L7 23ZM28 23L28 24L29 24L29 23ZM38 23L38 24L39 24L39 23ZM41 23L41 24L42 24L42 23ZM23 24L23 25L22 25L22 26L23 26L23 25L24 25L24 24ZM5 25L5 28L8 28L8 25ZM9 25L9 28L10 28L10 27L11 27L11 26L10 26L10 25ZM25 25L25 28L28 28L28 25ZM39 25L39 26L40 26L40 25ZM45 25L45 28L48 28L48 25ZM6 26L6 27L7 27L7 26ZM17 26L17 27L16 27L16 29L17 29L17 27L18 27L18 29L20 29L20 28L19 28L19 27L18 27L18 26ZM26 26L26 27L27 27L27 26ZM46 26L46 27L47 27L47 26ZM50 26L50 27L51 27L51 26ZM22 27L22 28L24 28L24 27ZM29 27L29 29L30 29L30 27ZM50 28L50 29L48 29L48 31L47 31L47 32L49 32L49 30L51 30L51 28ZM4 29L4 30L7 30L7 29ZM35 29L35 30L36 30L36 29ZM11 32L11 33L12 33L12 32ZM39 32L39 33L40 33L40 32ZM6 34L6 35L7 35L7 34ZM9 34L9 37L8 37L8 38L10 38L10 36L11 36L11 37L12 37L12 36L13 36L13 35L12 35L12 34L11 34L11 35L10 35L10 34ZM21 34L21 35L22 35L22 34ZM16 35L16 36L18 36L18 37L16 37L16 39L17 39L17 38L19 38L19 36L18 36L18 35ZM32 35L32 36L33 36L33 35ZM4 36L4 37L3 37L3 38L4 38L4 37L5 37L5 36ZM34 36L34 37L30 37L30 38L31 38L31 39L32 39L32 41L33 41L33 38L35 38L35 37L36 37L36 36ZM13 37L13 38L14 38L14 40L15 40L15 38L14 38L14 37ZM28 37L28 38L29 38L29 37ZM37 37L37 38L36 38L36 39L34 39L34 40L37 40L37 38L38 38L38 37ZM44 37L44 38L45 38L45 37ZM6 38L6 39L7 39L7 38ZM28 39L28 40L29 40L29 39ZM38 39L38 40L39 40L39 39ZM6 40L6 41L7 41L7 40ZM18 40L18 42L19 42L19 40ZM32 42L32 43L33 43L33 42ZM48 42L48 43L49 43L49 42ZM14 43L14 44L15 44L15 43ZM52 43L52 44L53 44L53 43ZM6 44L6 45L7 45L7 44ZM17 44L17 45L18 45L18 46L17 46L17 48L18 48L18 46L19 46L19 45L18 45L18 44ZM25 45L25 48L28 48L28 45ZM42 45L42 46L41 46L41 47L42 47L42 46L43 46L43 45ZM45 45L45 48L48 48L48 45ZM26 46L26 47L27 47L27 46ZM46 46L46 47L47 47L47 46ZM10 47L10 50L9 50L9 52L10 52L10 50L11 50L11 47ZM31 48L31 49L32 49L32 48ZM49 48L49 49L50 49L50 48ZM29 50L29 51L30 51L30 50ZM24 51L24 53L25 53L25 52L26 52L26 53L27 53L27 52L26 52L26 51ZM37 51L37 53L39 53L39 52L38 52L38 51ZM0 0L0 7L7 7L7 0ZM1 1L1 6L6 6L6 1ZM2 2L2 5L5 5L5 2ZM46 0L46 7L53 7L53 0ZM47 1L47 6L52 6L52 1ZM48 2L48 5L51 5L51 2ZM0 46L0 53L7 53L7 46ZM1 47L1 52L6 52L6 47ZM2 48L2 51L5 51L5 48Z" fill="#000000"/></g></g></svg>
